<?xml version="1.0" standalone="no"?>
<!DOCTYPE svg PUBLIC "-//W3C//DTD SVG 20010904//EN"
 "http://www.w3.org/TR/2001/REC-SVG-20010904/DTD/svg10.dtd">
<svg version="1.0" xmlns="http://www.w3.org/2000/svg"
 width="864.000000pt" height="864.000000pt" viewBox="0 0 864.000000 864.000000"
 preserveAspectRatio="xMidYMid meet">
<metadata>
Created by potrace 1.14, written by Peter Selinger 2001-2017
</metadata>
<g transform="translate(0.000000,864.000000) scale(0.100000,-0.100000)"
fill="#000000" stroke="none">
<path d="M4236 8633 c-3 -3 -16 -8 -28 -9 -39 -6 -53 -9 -65 -17 -7 -5 -13 -5
-13 -1 0 3 -7 1 -15 -6 -9 -7 -18 -10 -22 -7 -3 4 -11 3 -17 -2 -6 -5 -29 -14
-51 -21 -126 -39 -488 -216 -647 -317 -21 -12 -40 -23 -42 -23 -5 0 -158 -94
-196 -121 -14 -9 -59 -39 -100 -65 -113 -72 -334 -228 -432 -305 -49 -38 -92
-69 -98 -69 -5 0 -10 -4 -10 -8 0 -5 -20 -23 -45 -41 -24 -17 -50 -38 -58 -45
-7 -7 -40 -35 -72 -62 -33 -26 -65 -53 -71 -58 -6 -6 -35 -31 -64 -56 -84 -72
-341 -328 -411 -410 -72 -83 -169 -213 -189 -250 -7 -14 -16 -27 -19 -30 -4
-3 -23 -39 -43 -80 -158 -320 -37 -513 353 -566 77 -10 154 -12 418 -13 265
-1 250 9 129 -86 -35 -27 -68 -54 -75 -60 -6 -5 -31 -26 -54 -45 -24 -19 -56
-47 -72 -62 -16 -15 -45 -40 -66 -57 -134 -109 -468 -446 -616 -621 -44 -52
-82 -97 -85 -100 -3 -3 -18 -23 -35 -45 -16 -22 -35 -46 -43 -54 -33 -34 -183
-274 -219 -351 -76 -161 -87 -205 -87 -330 0 -101 21 -156 84 -218 32 -31 151
-105 163 -101 1 1 22 -4 47 -11 25 -7 54 -14 65 -15 11 -2 38 -7 60 -10 64
-11 163 -14 448 -15 232 -1 265 -3 253 -16 -8 -8 -20 -14 -27 -14 -7 0 -9 -3
-6 -7 4 -3 -6 -16 -22 -27 -122 -91 -409 -382 -590 -601 -104 -125 -93 -111
-151 -190 -25 -33 -47 -62 -50 -65 -15 -14 -100 -140 -100 -148 0 -6 -4 -12
-9 -14 -10 -4 -151 -233 -151 -246 0 -5 -9 -20 -19 -34 -11 -13 -23 -37 -26
-51 -4 -15 -11 -27 -17 -27 -5 0 -7 -4 -3 -9 3 -5 -2 -17 -11 -25 -8 -9 -13
-16 -10 -16 3 0 -6 -24 -18 -53 -13 -28 -31 -79 -41 -112 -20 -66 -20 -66 -31
-115 -9 -44 -11 -204 -3 -246 10 -48 49 -116 89 -156 32 -33 120 -85 154 -93
6 -1 18 -5 26 -8 8 -4 26 -9 40 -11 14 -3 25 -5 25 -6 0 -9 240 -11 1220 -13
1135 -2 1150 -2 1185 -22 60 -35 72 -75 74 -241 1 -92 -2 -144 -9 -144 -7 0
-7 -3 0 -8 6 -4 10 -173 9 -472 0 -256 3 -482 7 -503 9 -53 55 -114 108 -145
l46 -27 445 0 c425 0 446 1 475 20 43 28 84 71 97 103 15 38 22 140 15 203 -3
20 -1 42 3 49 4 6 4 27 0 45 -4 18 -4 39 1 46 4 7 5 17 2 23 -9 14 -9 66 0 66
5 0 5 5 1 12 -9 15 -9 232 0 247 4 6 4 11 -1 11 -7 0 -9 98 -3 125 1 6 1 12 0
15 -6 16 -4 70 3 70 5 0 5 5 1 12 -9 14 -9 182 0 196 3 6 3 13 -2 16 -9 5 -7
99 2 122 3 8 1 14 -4 14 -5 0 -2 20 6 43 18 52 66 101 114 115 24 7 396 10
1135 10 972 -1 1202 3 1225 17 4 2 22 7 41 10 51 8 157 65 196 105 36 37 80
118 90 166 8 38 8 171 -1 209 -3 17 -8 42 -11 56 -10 52 -48 165 -76 228 -16
35 -29 70 -29 77 0 7 -3 14 -8 16 -4 2 -19 26 -33 53 -79 155 -275 460 -332
517 -7 7 -18 20 -23 29 -17 31 -204 256 -289 349 -128 139 -396 398 -473 456
-14 11 33 13 273 14 358 1 411 5 530 34 57 15 78 22 131 47 194 93 239 275
133 544 -18 44 -35 82 -38 85 -3 3 -17 28 -31 55 -31 61 -107 181 -160 250
-14 18 -32 43 -40 55 -8 12 -22 30 -30 40 -8 10 -31 37 -49 60 -19 24 -40 48
-45 54 -6 6 -38 43 -71 81 -92 107 -280 300 -450 461 -17 16 -64 58 -105 94
-41 36 -80 70 -86 75 -88 78 -233 198 -275 227 -23 16 -9 17 226 19 284 2 305
2 395 14 36 4 72 9 80 10 35 4 139 40 180 61 202 105 216 297 43 589 -10 17
-20 32 -23 35 -14 14 -50 70 -50 79 0 5 -3 11 -7 13 -5 2 -28 28 -52 58 -68
84 -68 84 -242 260 -90 91 -195 193 -233 225 -38 33 -76 67 -85 75 -13 12
-137 114 -191 157 -102 81 -130 102 -160 123 -19 13 -37 27 -40 30 -12 13
-273 197 -370 260 -21 14 -192 122 -216 137 -173 108 -526 295 -645 342 -19 7
-52 21 -75 31 -34 15 -150 53 -239 77 -31 8 -192 13 -199 6z"/>
</g>
</svg>
