<?xml version="1.0" standalone="no"?>
<!DOCTYPE svg PUBLIC "-//W3C//DTD SVG 20010904//EN"
 "http://www.w3.org/TR/2001/REC-SVG-20010904/DTD/svg10.dtd">
<svg version="1.0" xmlns="http://www.w3.org/2000/svg"
 width="1040.000000pt" height="1040.000000pt" viewBox="0 0 1040.000000 1040.000000"
 preserveAspectRatio="xMidYMid meet">
<metadata>
Created by potrace 1.14, written by Peter Selinger 2001-2017
</metadata>
<g transform="translate(0.000000,1040.000000) scale(0.100000,-0.100000)"
fill="#000000" stroke="none">
<path d="M5061 9894 c-80 -20 -164 -47 -221 -71 -8 -3 -17 -7 -20 -7 -18 -3
-168 -72 -295 -137 -164 -83 -206 -106 -339 -186 -49 -29 -93 -53 -98 -53 -4
0 -8 -4 -8 -10 0 -5 -5 -10 -11 -10 -5 0 -37 -18 -69 -40 -32 -22 -61 -40 -64
-40 -3 0 -57 -36 -120 -80 -64 -44 -120 -80 -126 -80 -5 0 -10 -4 -10 -8 0 -4
-12 -15 -27 -24 -16 -9 -37 -24 -48 -33 -11 -8 -58 -43 -105 -77 -47 -34 -90
-67 -96 -72 -6 -6 -21 -18 -34 -26 -27 -19 -76 -58 -108 -87 -14 -13 -28 -23
-31 -23 -3 0 -25 -17 -48 -38 -23 -20 -55 -47 -71 -59 -15 -12 -42 -35 -58
-50 -17 -15 -68 -62 -114 -103 -235 -210 -458 -458 -562 -625 -58 -93 -116
-216 -125 -265 -6 -34 -15 -96 -15 -105 2 -43 14 -100 27 -125 22 -42 84 -110
101 -110 8 0 14 -3 14 -8 0 -14 135 -66 200 -77 19 -3 42 -8 50 -10 43 -12
163 -18 422 -19 159 0 288 -2 288 -2 0 -1 -44 -37 -97 -80 -54 -43 -103 -83
-109 -89 -6 -5 -30 -26 -55 -45 -24 -19 -67 -58 -96 -86 -29 -28 -53 -49 -53
-47 0 15 -462 -444 -550 -546 -30 -34 -60 -68 -65 -75 -22 -23 -111 -133 -135
-166 -14 -18 -34 -45 -46 -59 -21 -27 -79 -111 -133 -196 -46 -71 -126 -240
-145 -306 -25 -85 -27 -98 -27 -179 -1 -114 34 -184 134 -267 15 -13 34 -23
42 -23 8 0 15 -4 15 -10 0 -5 8 -10 18 -10 10 0 23 -5 28 -10 10 -10 24 -14
84 -26 14 -3 39 -9 55 -14 56 -17 139 -21 472 -23 183 -1 333 -4 333 -6 0 -4
-24 -26 -116 -106 -86 -74 -324 -312 -424 -424 -98 -108 -90 -99 -135 -156
-22 -27 -45 -54 -51 -60 -22 -20 -192 -252 -267 -365 -42 -63 -80 -119 -84
-125 -4 -5 -15 -23 -23 -40 -8 -16 -18 -32 -21 -35 -3 -3 -25 -45 -50 -95 -24
-49 -48 -93 -52 -96 -5 -3 -9 -10 -9 -15 0 -5 -7 -25 -15 -44 -38 -90 -78
-214 -91 -285 -11 -58 -6 -239 8 -270 7 -16 14 -36 16 -43 3 -15 9 -23 67 -90
20 -23 37 -39 37 -35 0 3 8 -1 18 -9 16 -14 39 -26 115 -56 79 -33 162 -35
1347 -37 652 -1 1196 -5 1210 -9 14 -5 36 -18 48 -30 53 -48 52 -26 52 -728 1
-680 1 -682 44 -753 17 -29 84 -84 94 -77 3 2 8 0 11 -5 10 -15 94 -29 129
-22 17 3 32 3 32 0 0 -4 23 -5 50 -1 28 4 50 3 50 -1 0 -4 14 -4 30 1 19 5 30
5 30 -1 0 -6 5 -7 10 -4 14 9 108 10 116 2 3 -3 16 -2 29 3 13 5 26 6 29 2 8
-7 113 -5 126 3 6 4 10 2 10 -2 0 -5 27 -6 61 -3 33 3 62 2 65 -2 3 -4 16 -3
29 2 13 5 27 5 29 1 8 -12 95 6 141 29 47 24 89 79 103 135 6 25 10 281 10
675 0 444 4 644 11 664 19 48 49 83 88 102 36 17 106 18 1228 20 655 2 1201 5
1215 7 14 3 45 10 70 17 25 7 50 13 55 14 39 7 132 66 173 110 64 71 87 141
87 266 0 52 -3 109 -7 125 -17 84 -64 232 -80 249 -4 6 -8 16 -8 23 0 22 -92
201 -163 318 -79 130 -276 413 -321 461 -6 7 -22 26 -36 44 -42 53 -125 151
-200 235 -24 27 -119 124 -210 215 -146 145 -199 195 -300 279 -14 11 -23 21
-20 21 3 1 158 3 345 5 187 1 366 8 399 14 32 5 61 10 65 9 3 -1 13 1 21 5 8
3 40 13 70 23 30 9 61 21 68 27 6 5 12 6 12 3 0 -11 92 55 123 88 80 84 100
215 57 366 -12 41 -24 85 -27 98 -3 12 -9 22 -14 22 -5 0 -9 6 -9 13 0 25 -81
171 -161 289 -77 116 -195 269 -274 357 -22 25 -62 70 -89 100 -72 81 -410
416 -486 481 -35 30 -78 69 -95 85 -17 17 -54 48 -81 69 -27 22 -53 44 -59 50
-5 6 -30 27 -55 46 -69 54 -81 63 -112 90 l-29 25 273 1 c150 0 305 3 343 7
75 7 227 37 235 46 3 3 12 7 20 9 37 8 125 60 149 88 53 63 59 72 70 121 28
117 -7 247 -118 431 -35 60 -133 193 -183 249 -199 224 -345 364 -593 570
-192 160 -165 139 -350 275 -88 65 -164 122 -170 126 -17 13 -376 252 -380
252 -1 0 -49 28 -106 63 -57 35 -111 67 -119 70 -8 4 -33 18 -55 31 -109 65
-580 289 -580 276 0 -1 -12 3 -28 9 -15 6 -38 13 -50 15 -12 3 -48 12 -80 21
-94 26 -182 26 -286 -1z"/>
</g>
</svg>
