<svg id="Calque_1" data-name="Calque 1" xmlns="http://www.w3.org/2000/svg" viewBox="0 0 129.06 24.51"><defs><style>.cls-1{}</style></defs><path class="cls-1" d="M9.12,82.81A74,74,0,0,1,33.36,65.13a60.08,60.08,0,0,1,7.22-2.78c2.16-.66,4.64-1.07,6.55.43,2.56,2,3.11,6.06,4,9,1.11,3.74,2.66,7.36,6.14,9.45C61,83.47,65.82,83.58,70,82.45c5.1-1.39,9.53-4.4,14.23-6.7a66.29,66.29,0,0,1,14.74-5.09A68,68,0,0,1,133.8,72.1c1.85.58,2.64-2.31.8-2.89A71.14,71.14,0,0,0,103,66.87,68.55,68.55,0,0,0,87.74,71c-5,2-9.58,4.87-14.48,7.11C69.1,80,64,81.15,59.67,79.1c-3.71-1.75-4.92-5.48-6-9.16-1-3.35-1.85-7.2-4.71-9.47-4.11-3.27-9.46-1.09-13.75.62A76.54,76.54,0,0,0,7,80.69c-1.3,1.43.82,3.56,2.12,2.12Z" transform="translate(-6.59 -58.78)"/></svg>
