<svg xmlns="http://www.w3.org/2000/svg" viewBox="0 0 270 111.59"><defs><style>.cls-1{fill:#07452f;}.cls-2{fill:none;}.cls-3{fill:#9cc1a8;}</style></defs><g id="Calque_2" data-name="Calque 2"><g id="Calque_1-2" data-name="Calque 1"><path class="cls-1" d="M35.25,111.55,34.12,111c.56-1.26.17-2.28-.67-2.66L3.59,95.08c-.88-.39-1.9,0-2.46,1.27L0,95.84,5.86,82.7A18.61,18.61,0,0,1,7,80.55c3-4.71,7.17-7.36,12.92-4.8,4.65,2.07,6.18,5.75,5.63,10.11,2.87-3.32,6.63-4.65,11.28-2.58,6.7,3,6.75,9.51,4.25,15.12ZM9.94,82.74c-1.06-.47-2.56-.42-3,.49l-.71,1.59,15.93,7.1.69-1.55A1.72,1.72,0,0,0,22,88.11ZM24.7,89.32l-1.38,3.1,15.93,7.1L40,97.9c.39-.88-.58-2-1.64-2.5Z"/><path class="cls-1" d="M32.38,58.08a12.2,12.2,0,0,1,13.23-1.57,12.6,12.6,0,0,1,2.06,1.31l3.66,2.83A12.09,12.09,0,0,1,54.9,75.52l-.13.29a12.43,12.43,0,0,1-1.32,2A9.34,9.34,0,0,1,52,79.35l0,0a1.13,1.13,0,0,1-.22.22,12.18,12.18,0,0,1-15.2.33l-3.82-2.95a12.13,12.13,0,0,1-3.5-14.83l.16-.26a11.8,11.8,0,0,1,1.28-2,12.91,12.91,0,0,1,1.46-1.5C32.21,58.24,32.31,58.17,32.38,58.08Zm1.77,2.44a1.71,1.71,0,1,0-2.08,2.69L50,77.1a1.71,1.71,0,1,0,2.08-2.68Z"/><path class="cls-1" d="M72.8,58.63l-16-20.28A1.88,1.88,0,0,0,54.17,38l-1.22,1L68.32,58.43c.57.73,1.65.86,2.74,0l.77,1L60.19,68.57l-.77-1c1.09-.86,1.22-1.94.65-2.67L45.76,46.77c-.57-.73-1.66-.85-2.75,0l-.76-1,11.27-8.89a15.37,15.37,0,0,1,1.91-1.26l.26-.11a12,12,0,0,1,8-1,11.63,11.63,0,0,1,5.76,3.08,49.52,49.52,0,0,1,4.09,4.94l5.71,7.24c.57.73,1.65.86,2.75,0l.76,1Z"/><path class="cls-1" d="M69.07,21.33a5.16,5.16,0,1,1,7,2.32A5.22,5.22,0,0,1,69.07,21.33ZM97.52,54A9.75,9.75,0,0,1,93.38,67l-2,1.11-1,.5a9.84,9.84,0,0,1-13.21-4.39,5.16,5.16,0,1,1,7,2.33,4.53,4.53,0,0,1-.94.36l-.14.07a.52.52,0,0,0-.23.72.45.45,0,0,0,.24.23,8.36,8.36,0,0,0,6.7-.42l1-.5a1.68,1.68,0,0,0,.67-2.3L74.23,31.31c-.43-.82-1.44-1.17-2.67-.53L71,29.65l11-5.71Z"/><path class="cls-1" d="M99.4,13.64A12.21,12.21,0,0,1,111.1,20a13.43,13.43,0,0,1,.93,2.26l1.35,4.43a12.07,12.07,0,0,1-5.66,14.19l-.28.17a12.77,12.77,0,0,1-2.23.88,9.33,9.33,0,0,1-2,.42v0a1.09,1.09,0,0,1-.3,0,12.18,12.18,0,0,1-12.61-8.49l-1.41-4.62a12.11,12.11,0,0,1,5.7-14.12l.28-.13a11,11,0,0,1,4.28-1.31C99.16,13.67,99.29,13.67,99.4,13.64Zm0,3a1.71,1.71,0,1,0-3.25,1l6.63,21.7a1.72,1.72,0,1,0,3.25-1Z"/><path class="cls-1" d="M130.37,37.55a11.77,11.77,0,0,1-2.29-.12l-.27,0a12.14,12.14,0,0,1-7-3.82,11.6,11.6,0,0,1-3-5.83,49.11,49.11,0,0,1-.48-6.39l-.47-9.21c-.05-.93-.86-1.66-2.25-1.59l-.06-1.23L127.2,8.7l1.31,25.77a1.89,1.89,0,0,0,2,1.83l1.54-.07-1.26-24.78c-.05-.92-.86-1.65-2.25-1.58l-.06-1.24,14.8-.75.06,1.23c-1.39.07-2.12.88-2.07,1.81L142.39,34c.05.92.86,1.65,2.25,1.58l.06,1.24Z"/><path class="cls-1" d="M163.2,16.63c.07-.38.26-.74.33-1.11a.53.53,0,0,0-.42-.64.46.46,0,0,0-.33,0,3.72,3.72,0,0,0-.77.56,8.41,8.41,0,0,0-3,5l-3.13,15.9c-.18.9.42,1.81,1.79,2.08l-.24,1.21-14.5-2.86.24-1.21c1.36.27,2.27-.34,2.45-1.25l4.46-22.67c.19-.95-.42-1.82-1.79-2.08l.24-1.22,12.38,2.44-1,5a9.91,9.91,0,0,1,9.47-3.37,5.25,5.25,0,1,1-6.16,4.14Z"/><path class="cls-1" d="M199,58l-9.38-5.52,6.47-36.32-3.37,5.72a13.58,13.58,0,0,0-2.05,5.15l-4.37,23.49-10.68-6.28.63-1.07c1.2.71,2.25.43,2.72-.37l16.58-28.16c.49-.84.22-1.89-1-2.6l.63-1.06,11.34,6.67L200,53.9l3.35-5.69a19.24,19.24,0,0,0,1.9-5.82l4.52-22.82,10.68,6.28-.63,1.07c-1.23-.72-2.25-.43-2.72.37Z"/><path class="cls-1" d="M230.63,48.59a12.21,12.21,0,0,1,0,13.31,13,13,0,0,1-1.55,1.9l-3.25,3.29a12.06,12.06,0,0,1-15.18,1.78l-.28-.16a12.12,12.12,0,0,1-1.83-1.55,8.67,8.67,0,0,1-1.35-1.6l0,0a1.46,1.46,0,0,1-.19-.25,12.16,12.16,0,0,1,1.47-15.12l3.39-3.44A12.12,12.12,0,0,1,227,45l.25.19a12.7,12.7,0,0,1,1.87,1.52,13.91,13.91,0,0,1,1.32,1.62A2.77,2.77,0,0,0,230.63,48.59ZM228,50.05a1.71,1.71,0,1,0-2.42-2.38L209.65,63.83a1.72,1.72,0,1,0,2.42,2.38Z"/><path class="cls-1" d="M231.68,83.11a5.21,5.21,0,0,1,5.57,8.81,7.4,7.4,0,0,1-4.83.8c-3.83-.52-6.34-2.77-8.25-5.9a25.52,25.52,0,0,1-1.35-2.66c0-.09-.07-.18-.1-.3a12.19,12.19,0,0,1,5-14.44L231.6,67a12.12,12.12,0,1,1,12.9,20.51l-1.86,1.17-7.21-11.79L225.62,83a2.51,2.51,0,0,0-1,2.73,3.87,3.87,0,0,0,.32.58c.55.88,3,4.5,4.33,3.71.23-.14.3-.33.21-.68A5.24,5.24,0,0,1,231.68,83.11Zm4.76-6.85.91,1.43a1.68,1.68,0,0,0,2.31.56l6.93-4.34a2,2,0,0,0,.76-2.49,8.45,8.45,0,0,0-1-1.35Z"/><path class="cls-1" d="M253.33,60.9a3,3,0,0,0-5.4,2.6.31.31,0,0,1-.12.39c-.23.13-.51,0-.8-.17a4.69,4.69,0,0,1,.12.75,5.75,5.75,0,0,0,2.5.94A4.23,4.23,0,0,0,252.4,65,3,3,0,0,0,253.33,60.9Z"/><path class="cls-1" d="M258.84,68.25a3,3,0,0,0-5.4,2.6.31.31,0,0,1-.12.39c-.22.13-.51,0-.8-.17a6.54,6.54,0,0,1,.13.75,5.7,5.7,0,0,0,2.49.94,4.2,4.2,0,0,0,2.77-.45A3,3,0,0,0,258.84,68.25Z"/><path class="cls-1" d="M234.9,109.62l-5.29-13.34,1.14-.46a1.82,1.82,0,0,0,2.39,1.3l30.34-12.05a1.82,1.82,0,0,0,.84-2.58l1.15-.46L270,93.44l-33.1,13.15a1.8,1.8,0,0,0-.85,2.57Z"/><path class="cls-2" d="M81.65,97.57h.27"/><path class="cls-2" d="M183.69,97.57H184"/><text/><path class="cls-1" d="M135,57.84h-.12v0Z"/><path class="cls-1" d="M152.76,101.84h-13a1.06,1.06,0,0,0-1.06,1.06v7.35a1.33,1.33,0,0,1-1.33,1.34h-4.59a1.44,1.44,0,0,1-1.44-1.44v-7.41a.9.9,0,0,0-.89-.9H117.24c-8,.15-.55-10.12,4.65-14.33h-3c-9.6,0-.08-9.69,5-13.56h-2.51c-12.79,0,7.77-15.52,13.52-16.1H135a.22.22,0,0,1,.08,0h.12c5.75.58,26.31,16.1,13.52,16.1h-2.51c5.07,3.87,14.59,13.56,5,13.56h-3C153.31,91.72,160.76,102,152.76,101.84Z"/><path class="cls-1" d="M135.16,57.83v0h0Z"/><ellipse class="cls-3" cx="130.76" cy="78.71" rx="1.92" ry="2.4"/><circle class="cls-1" cx="131.72" cy="79.67" r="0.96"/><ellipse class="cls-3" cx="139.49" cy="78.71" rx="1.92" ry="2.4"/><circle class="cls-1" cx="140.45" cy="79.67" r="0.96"/></g></g></svg>